<?xml version="1.0" encoding="UTF-8" standalone="no"?>
<!-- Created with Inkscape (http://www.inkscape.org/) -->

<svg
   width="32.454823mm"
   height="6.9742584mm"
   viewBox="0 0 32.454823 6.9742584"
   version="1.1"
   id="svg1"
   inkscape:export-filename="dchat_ssr_logo_2.svg"
   inkscape:export-xdpi="96"
   inkscape:export-ydpi="96"
   inkscape:version="1.3.2 (091e20e, 2023-11-25, custom)"
   sodipodi:docname="dchat_ssr_logo_2.svg"
   xmlns:inkscape="http://www.inkscape.org/namespaces/inkscape"
   xmlns:sodipodi="http://sodipodi.sourceforge.net/DTD/sodipodi-0.dtd"
   xmlns:xlink="http://www.w3.org/1999/xlink"
   xmlns="http://www.w3.org/2000/svg"
   xmlns:svg="http://www.w3.org/2000/svg">
  <sodipodi:namedview
     id="namedview1"
     pagecolor="#000000"
     bordercolor="#000000"
     borderopacity="0.25"
     inkscape:showpageshadow="2"
     inkscape:pageopacity="0.0"
     inkscape:pagecheckerboard="0"
     inkscape:deskcolor="#d1d1d1"
     inkscape:document-units="mm"
     inkscape:zoom="1"
     inkscape:cx="7.5"
     inkscape:cy="14.5"
     inkscape:window-width="2560"
     inkscape:window-height="1351"
     inkscape:window-x="-9"
     inkscape:window-y="-9"
     inkscape:window-maximized="1"
     inkscape:current-layer="layer1" />
  <defs
     id="defs1">
    <linearGradient
       id="linearGradient1"
       inkscape:collect="always">
      <stop
         style="stop-color:#05ff00;stop-opacity:1;"
         offset="0"
         id="stop1" />
      <stop
         style="stop-color:#eeff2b;stop-opacity:1;"
         offset="0.19942197"
         id="stop3" />
      <stop
         style="stop-color:#0dff36;stop-opacity:1;"
         offset="1"
         id="stop2" />
    </linearGradient>
    <linearGradient
       inkscape:collect="always"
       xlink:href="#linearGradient1"
       id="linearGradient2"
       x1="44.085709"
       y1="85.134216"
       x2="72.62764"
       y2="85.134216"
       gradientUnits="userSpaceOnUse"
       gradientTransform="matrix(0.75,0,0,0.75,-27.638045,-59.181816)" />
  </defs>
  <g
     inkscape:label="Layer 1"
     inkscape:groupmode="layer"
     id="layer1"
     transform="translate(-5.4262358,-1.1817133)">
    <path
       d="m 5.426236,1.3222733 h 1.3022474 q 1.2609062,0 1.7032569,0.1157554 0.4464849,0.1157553 0.6779955,0.3803389 0.2315106,0.2645836 0.2893883,0.591179 0.057878,0.3224613 0.057878,1.2733086 v 2.3440453 q 0,0.9012379 -0.086817,1.2071627 Q 9.2875029,7.5358538 9.0766629,7.7094869 8.8658228,7.8789858 8.5557639,7.9492658 8.245705,8.0154117 7.621453,8.0154117 H 5.426236 Z M 7.1667,2.4674243 v 4.4028364 q 0.3762048,0 0.4630213,-0.1488283 0.086817,-0.1529623 0.086817,-0.8226896 V 3.2983821 q 0,-0.454753 -0.028939,-0.5829107 Q 7.6586601,2.5873137 7.5553071,2.529436 7.4519541,2.4674243 7.1667,2.4674243 Z m 7.003197,1.7735369 H 12.429433 V 3.0751397 q 0,-0.5084966 -0.05788,-0.6325202 -0.05374,-0.1281576 -0.243913,-0.1281576 -0.214975,0 -0.272852,0.1529624 -0.05788,0.1529623 -0.05788,0.661459 v 3.1088573 q 0,0.487826 0.05788,0.6366543 0.05788,0.1488283 0.260449,0.1488283 0.194304,0 0.252182,-0.1488283 0.06201,-0.1488283 0.06201,-0.6986661 V 5.3365027 h 1.740464 v 0.2604495 q 0,1.0376638 -0.148828,1.4717462 -0.144695,0.4340826 -0.649057,0.7606779 -0.500228,0.3265954 -1.236101,0.3265954 -0.764812,0 -1.260907,-0.2769859 Q 10.37891,7.6019998 10.21768,7.1141738 10.056449,6.6222136 10.056449,5.6382933 V 3.6828552 q 0,-0.7234708 0.04961,-1.0831392 0.04961,-0.3638024 0.293523,-0.698666 0.248047,-0.3348637 0.682129,-0.5250331 0.438217,-0.1943036 1.004591,-0.1943036 0.768946,0 1.269174,0.2976566 0.500229,0.2976565 0.657326,0.7441413 0.157096,0.4423508 0.157096,1.3807957 z M 18.795976,1.3222733 V 8.0154117 H 17.055512 V 5.2042109 H 16.534613 V 8.0154117 H 14.794149 V 1.3222733 h 1.740464 v 2.3936548 h 0.520899 V 1.3222733 Z m 3.704171,0 0.996322,6.6931384 H 21.714664 L 21.627848,6.8123831 H 21.003596 L 20.900243,8.0154117 H 19.097767 L 19.982469,1.3222733 Z M 21.578238,5.625891 Q 21.445947,4.4890083 21.313655,2.8188243 21.049071,4.7370555 20.982925,5.625891 Z M 26.832702,1.3222733 V 2.6617278 H 25.799173 V 8.0154117 H 24.058709 V 2.6617278 H 23.029313 V 1.3222733 Z"
       id="text1"
       style="font-size:11.2889px;font-family:Impact;-inkscape-font-specification:'Impact, Normal';fill:url(#linearGradient2);stroke-width:0.198437"
       aria-label="DCHAT"
       inkscape:export-filename="dchat_logo_ssr.svg"
       inkscape:export-xdpi="96"
       inkscape:export-ydpi="96" />
    <g
       id="text2"
       style="font-weight:bold;font-stretch:condensed;font-size:4.36032px;font-family:Arial;-inkscape-font-specification:'Arial, Bold Condensed';fill:#cccccc;stroke-width:0.653844"
       transform="matrix(0.73313876,0,0,0.76724902,5.413412,1.1672106)"
       aria-label="STATIC&#10;SERVER">
      <path
         d="m 29.797546,2.3971395 0.504588,-0.059614 q 0.08516,0.5982666 0.557814,0.5982666 0.234197,0 0.368328,-0.1213566 0.134131,-0.1234856 0.134131,-0.3044559 0,-0.1064531 -0.04684,-0.1809703 Q 31.268727,2.2544923 31.172919,2.2076527 31.077109,2.1586847 30.708784,2.045844 30.378779,1.945778 30.225486,1.8286796 30.072194,1.7115811 29.980644,1.5220946 29.891224,1.330479 29.891224,1.1111855 q 0,-0.25548749 0.114969,-0.4598775 0.117098,-0.20439 0.321488,-0.30871407 0.204391,-0.10432406 0.504588,-0.10432406 0.451362,0 0.70472,0.24484219 0.253358,0.24484219 0.268262,0.70046154 l -0.517362,0.027678 q -0.03407,-0.25122943 -0.146906,-0.35129537 -0.11284,-0.10006594 -0.321488,-0.10006594 -0.208648,0 -0.321488,0.0872916 -0.112841,0.0872916 -0.112841,0.21716431 0,0.1277438 0.102195,0.2150354 0.102195,0.087291 0.470523,0.1916156 0.389618,0.1128403 0.562073,0.238455 0.174583,0.1234856 0.266132,0.3214884 0.09155,0.1958738 0.09155,0.47691 0,0.406651 -0.251229,0.6834291 -0.249101,0.2767781 -0.781366,0.2767781 -0.941046,0 -1.047499,-1.0709184 z m 3.091399,1.0155628 V 0.81950414 H 32.128869 V 0.29149663 h 2.033255 V 0.81950414 H 33.404178 V 3.4127023 Z m 3.653471,0 H 35.980344 L 35.756792,2.7037245 h -1.02195 l -0.210777,0.7089778 h -0.549298 l 0.996401,-3.12120567 h 0.547169 z M 35.590725,2.177846 35.23943,1.019636 34.892393,2.177846 Z m 1.539312,1.2348563 V 0.81950414 H 36.369962 V 0.29149663 h 2.033255 V 0.81950414 H 37.645271 V 3.4127023 Z m 1.592539,0 V 0.29149663 h 0.515233 V 3.4127023 Z m 2.648554,-1.1475647 0.500329,0.1937447 q -0.117098,0.5237494 -0.389618,0.7664625 -0.27252,0.2405841 -0.670655,0.2405841 -0.50033,0 -0.811173,-0.3853603 -0.357682,-0.4449741 -0.357682,-1.2007913 0,-0.7983985 0.359811,-1.24975972 0.312973,-0.39174751 0.84098,-0.39174751 0.430071,0 0.719623,0.29381063 0.206519,0.20864813 0.302327,0.6195572 l -0.510975,0.1490344 q -0.04897,-0.2533585 -0.195874,-0.38748941 -0.144776,-0.13626 -0.342779,-0.13626 -0.283165,0 -0.462006,0.24697121 -0.178842,0.2469713 -0.178842,0.815431 0,0.5897503 0.174584,0.8388506 0.174583,0.2491004 0.45349,0.2491004 0.20439,0 0.353424,-0.1575507 0.149035,-0.1596797 0.215036,-0.5045878 z"
         id="path8" />
      <path
         d="m 29.797546,7.8475396 0.504588,-0.059614 q 0.08516,0.5982665 0.557814,0.5982665 0.234197,0 0.368328,-0.1213565 0.134131,-0.1234857 0.134131,-0.304456 0,-0.1064531 -0.04684,-0.1809703 Q 31.268728,7.7048924 31.17292,7.658053 31.077113,7.6090846 30.708785,7.4962443 30.37878,7.3961783 30.225487,7.2790799 30.072195,7.1619815 29.980645,6.9724949 q -0.08942,-0.1916156 -0.08942,-0.4109091 0,-0.2554875 0.114969,-0.4598775 0.117098,-0.20439 0.321488,-0.3087141 0.204391,-0.104324 0.504588,-0.104324 0.451362,0 0.70472,0.2448422 0.253358,0.2448422 0.268262,0.7004616 L 31.28789,6.661652 Q 31.25382,6.4104226 31.140984,6.3103566 31.028144,6.2102907 30.819496,6.2102907 q -0.208648,0 -0.321488,0.087292 -0.112841,0.087292 -0.112841,0.2171643 0,0.1277438 0.102195,0.2150354 0.102195,0.087292 0.470523,0.1916156 0.389618,0.1128403 0.562073,0.238455 0.174583,0.1234856 0.266132,0.3214884 0.09155,0.1958738 0.09155,0.4769101 0,0.4066509 -0.251229,0.683429 -0.249101,0.2767782 -0.781366,0.2767782 -0.941046,0 -1.047499,-1.0709191 z m 2.516552,1.0155628 V 5.7418967 h 1.899124 v 0.5280076 h -1.383891 v 0.6919453 h 1.285954 V 7.487728 h -1.285954 v 0.849496 h 1.43073 v 0.5258784 z m 2.38455,0 V 5.7418967 h 1.087951 q 0.417296,0 0.596137,0.085163 0.178842,0.083033 0.293811,0.2916816 0.114969,0.2065191 0.114969,0.4960716 0,0.3661987 -0.176712,0.5897503 -0.174583,0.2235516 -0.4982,0.2810363 0.166067,0.1192275 0.274649,0.2618747 0.108582,0.1405181 0.295939,0.5067168 l 0.310844,0.6089119 h -0.6153 L 36.008021,8.1839315 Q 35.805761,7.8156037 35.733372,7.724054 35.660984,7.6303752 35.58008,7.5963102 35.49918,7.5601162 35.320334,7.5601162 h -0.106453 v 1.3029862 z m 0.515233,-1.8011869 h 0.383231 q 0.351296,0 0.447104,-0.029807 0.09581,-0.031936 0.155421,-0.1256146 0.05961,-0.093679 0.05961,-0.2491004 0,-0.1490343 -0.05961,-0.238455 -0.05961,-0.09155 -0.161809,-0.1256147 -0.07239,-0.02342 -0.419425,-0.02342 h -0.404522 z m 2.654941,1.8011869 -0.913368,-3.1212057 h 0.559944 l 0.647235,2.3100329 0.625944,-2.3100329 h 0.549298 l -0.915497,3.1212057 z m 1.733057,0 V 5.7418967 h 1.899123 v 0.5280076 h -1.38389 v 0.6919453 h 1.285954 V 7.487728 h -1.285954 v 0.849496 h 1.43073 v 0.5258784 z m 2.38455,0 V 5.7418967 h 1.087951 q 0.417296,0 0.596137,0.085163 0.178841,0.083033 0.293811,0.2916816 0.114969,0.2065191 0.114969,0.4960716 0,0.3661987 -0.176712,0.5897503 -0.174583,0.2235516 -0.498201,0.2810363 0.166067,0.1192275 0.274649,0.2618747 0.108583,0.1405181 0.29594,0.5067168 l 0.310843,0.6089119 H 43.670517 L 43.295802,8.1839315 Q 43.093541,7.8156037 43.021153,7.724054 42.948763,7.630375 42.867861,7.5963102 q -0.0809,-0.036194 -0.259746,-0.036194 h -0.106453 v 1.3029862 z m 0.515233,-1.8011869 h 0.383231 q 0.351295,0 0.447103,-0.029807 0.09581,-0.031936 0.155422,-0.1256146 0.05961,-0.093679 0.05961,-0.2491004 0,-0.1490343 -0.05961,-0.238455 -0.05961,-0.09155 -0.161809,-0.1256147 -0.07239,-0.02342 -0.419425,-0.02342 h -0.404522 z"
         id="path9" />
    </g>
  </g>
</svg>
