<?xml version="1.0" encoding="UTF-8" standalone="no"?>
<!-- Created with Inkscape (http://www.inkscape.org/) -->

<svg
   width="43.273102mm"
   height="9.2990112mm"
   viewBox="0 0 43.273102 9.2990112"
   version="1.1"
   id="svg1"
   inkscape:export-filename="dchat.svg"
   inkscape:export-xdpi="96"
   inkscape:export-ydpi="96"
   inkscape:version="1.3.2 (091e20e, 2023-11-25, custom)"
   sodipodi:docname="dchat.svg"
   xmlns:inkscape="http://www.inkscape.org/namespaces/inkscape"
   xmlns:sodipodi="http://sodipodi.sourceforge.net/DTD/sodipodi-0.dtd"
   xmlns:xlink="http://www.w3.org/1999/xlink"
   xmlns="http://www.w3.org/2000/svg"
   xmlns:svg="http://www.w3.org/2000/svg">
  <sodipodi:namedview
     id="namedview1"
     pagecolor="#000000"
     bordercolor="#000000"
     borderopacity="0.25"
     inkscape:showpageshadow="2"
     inkscape:pageopacity="0.0"
     inkscape:pagecheckerboard="0"
     inkscape:deskcolor="#d1d1d1"
     inkscape:document-units="mm"
     inkscape:zoom="22.919307"
     inkscape:cx="7.439143"
     inkscape:cy="18.521503"
     inkscape:window-width="2560"
     inkscape:window-height="1351"
     inkscape:window-x="-9"
     inkscape:window-y="-9"
     inkscape:window-maximized="1"
     inkscape:current-layer="layer1" />
  <defs
     id="defs1">
    <linearGradient
       id="linearGradient1"
       inkscape:collect="always">
      <stop
         style="stop-color:#05ff00;stop-opacity:1;"
         offset="0"
         id="stop1" />
      <stop
         style="stop-color:#eeff2b;stop-opacity:1;"
         offset="0.19942197"
         id="stop3" />
      <stop
         style="stop-color:#0dff36;stop-opacity:1;"
         offset="1"
         id="stop2" />
    </linearGradient>
    <linearGradient
       inkscape:collect="always"
       xlink:href="#linearGradient1"
       id="linearGradient2"
       x1="44.085709"
       y1="85.134216"
       x2="72.62764"
       y2="85.134216"
       gradientUnits="userSpaceOnUse"
       gradientTransform="translate(-44.06861,-80.465369)" />
  </defs>
  <g
     inkscape:label="Layer 1"
     inkscape:groupmode="layer"
     id="layer1"
     transform="translate(-0.01709863,-0.0193369)">
    <path
       d="M 0.01709863,0.20675029 H 1.7534285 q 1.6812083,0 2.2710093,0.15434043 0.5953131,0.15434044 0.903994,0.50711857 0.3086808,0.35277811 0.385851,0.78823861 0.07717,0.4299484 0.07717,1.6977448 v 3.1253938 q 0,1.2016506 -0.1157554,1.6095503 Q 5.1654546,8.4915243 4.8843345,8.723035 4.6032144,8.9490335 4.1898025,9.0427402 3.7763907,9.1309347 2.9440547,9.1309347 H 0.01709863 Z M 2.3377173,1.7336182 v 5.8704486 q 0.5016064,0 0.6173618,-0.1984377 Q 3.0708344,7.2016793 3.0708344,6.3087096 V 2.841562 q 0,-0.6063374 -0.038585,-0.7772143 Q 2.9936642,1.8934708 2.8558602,1.8163005 2.7180562,1.7336182 2.3377173,1.7336182 Z M 11.675314,4.0983341 H 9.3546949 V 2.5439054 q 0,-0.6779954 -0.07717,-0.8433602 -0.071658,-0.1708769 -0.3252174,-0.1708769 -0.2866322,0 -0.3638024,0.2039499 -0.07717,0.2039498 -0.07717,0.8819453 v 4.1451431 q 0,0.6504347 0.07717,0.8488724 0.07717,0.1984377 0.347266,0.1984377 0.2590714,0 0.3362416,-0.1984377 0.082682,-0.1984377 0.082682,-0.9315548 V 5.5590561 h 2.3206193 v 0.347266 q 0,1.3835517 -0.198438,1.9623283 -0.192926,0.5787767 -0.865409,1.0142372 -0.6669713,0.4354605 -1.6481355,0.4354605 -1.0197493,0 -1.6812083,-0.3693146 Q 6.6206643,8.5797189 6.4056902,7.9292842 6.190716,7.2733373 6.190716,5.9614436 V 3.3541927 q 0,-0.9646277 0.066146,-1.4441855 Q 6.3230078,1.4249373 6.6482251,0.97845246 6.9789546,0.53196763 7.5577313,0.27840835 8.1420201,0.0193369 8.8971858,0.0193369 q 1.0252614,0 1.6922322,0.39687541 0.666972,0.3968754 0.876434,0.99218849 0.209462,0.589801 0.209462,1.8410609 z M 17.843419,0.20675029 V 9.1309347 H 15.5228 V 5.382667 H 14.828268 V 9.1309347 H 12.50765 V 0.20675029 h 2.320618 V 3.39829 H 15.5228 V 0.20675029 Z m 4.938894,0 1.32843,8.92418441 h -2.37574 L 21.619248,7.5268966 H 20.786912 L 20.649108,9.1309347 H 18.245807 L 19.425409,0.20675029 Z M 21.553102,5.9449072 Q 21.376713,4.4290636 21.200324,2.2021516 20.847546,4.7597931 20.759351,5.9449072 Z M 28.559054,0.20675029 V 1.9926896 H 27.181015 V 9.1309347 H 24.860396 V 1.9926896 H 23.487868 V 0.20675029 Z"
       id="text1"
       style="font-size:11.2889px;font-family:Impact;-inkscape-font-specification:'Impact, Normal';fill:url(#linearGradient2);stroke-width:0.264583"
       aria-label="DCHAT"
       inkscape:export-filename="dchat_logo_ssr.svg"
       inkscape:export-xdpi="96"
       inkscape:export-ydpi="96" />
    <g
       id="text2"
       style="font-weight:bold;font-stretch:condensed;font-size:4.36032px;font-family:Arial;-inkscape-font-specification:'Arial, Bold Condensed';fill:#cccccc;stroke-width:0.653844"
       transform="scale(0.97751834,1.0229987)"
       aria-label="STATIC&#10;SERVER">
      <path
         d="m 29.797546,2.3971395 0.504588,-0.059614 q 0.08516,0.5982666 0.557814,0.5982666 0.234197,0 0.368328,-0.1213566 0.134131,-0.1234856 0.134131,-0.3044559 0,-0.1064531 -0.04684,-0.1809703 Q 31.268727,2.2544923 31.172919,2.2076527 31.077109,2.1586847 30.708784,2.045844 30.378779,1.945778 30.225486,1.8286796 30.072194,1.7115811 29.980644,1.5220946 29.891224,1.330479 29.891224,1.1111855 q 0,-0.25548749 0.114969,-0.4598775 0.117098,-0.20439 0.321488,-0.30871407 0.204391,-0.10432406 0.504588,-0.10432406 0.451362,0 0.70472,0.24484219 0.253358,0.24484219 0.268262,0.70046154 l -0.517362,0.027678 q -0.03407,-0.25122943 -0.146906,-0.35129537 -0.11284,-0.10006594 -0.321488,-0.10006594 -0.208648,0 -0.321488,0.0872916 -0.112841,0.0872916 -0.112841,0.21716431 0,0.1277438 0.102195,0.2150354 0.102195,0.087291 0.470523,0.1916156 0.389618,0.1128403 0.562073,0.238455 0.174583,0.1234856 0.266132,0.3214884 0.09155,0.1958738 0.09155,0.47691 0,0.406651 -0.251229,0.6834291 -0.249101,0.2767781 -0.781366,0.2767781 -0.941046,0 -1.047499,-1.0709184 z m 3.091399,1.0155628 V 0.81950414 H 32.128869 V 0.29149663 h 2.033255 V 0.81950414 H 33.404178 V 3.4127023 Z m 3.653471,0 H 35.980344 L 35.756792,2.7037245 h -1.02195 l -0.210777,0.7089778 h -0.549298 l 0.996401,-3.12120567 h 0.547169 z M 35.590725,2.177846 35.23943,1.019636 34.892393,2.177846 Z m 1.539312,1.2348563 V 0.81950414 H 36.369962 V 0.29149663 h 2.033255 V 0.81950414 H 37.645271 V 3.4127023 Z m 1.592539,0 V 0.29149663 h 0.515233 V 3.4127023 Z m 2.648554,-1.1475647 0.500329,0.1937447 q -0.117098,0.5237494 -0.389618,0.7664625 -0.27252,0.2405841 -0.670655,0.2405841 -0.50033,0 -0.811173,-0.3853603 -0.357682,-0.4449741 -0.357682,-1.2007913 0,-0.7983985 0.359811,-1.24975972 0.312973,-0.39174751 0.84098,-0.39174751 0.430071,0 0.719623,0.29381063 0.206519,0.20864813 0.302327,0.6195572 l -0.510975,0.1490344 q -0.04897,-0.2533585 -0.195874,-0.38748941 -0.144776,-0.13626 -0.342779,-0.13626 -0.283165,0 -0.462006,0.24697121 -0.178842,0.2469713 -0.178842,0.815431 0,0.5897503 0.174584,0.8388506 0.174583,0.2491004 0.45349,0.2491004 0.20439,0 0.353424,-0.1575507 0.149035,-0.1596797 0.215036,-0.5045878 z"
         id="path8" />
      <path
         d="m 29.797546,7.8475396 0.504588,-0.059614 q 0.08516,0.5982665 0.557814,0.5982665 0.234197,0 0.368328,-0.1213565 0.134131,-0.1234857 0.134131,-0.304456 0,-0.1064531 -0.04684,-0.1809703 Q 31.268728,7.7048924 31.17292,7.658053 31.077113,7.6090846 30.708785,7.4962443 30.37878,7.3961783 30.225487,7.2790799 30.072195,7.1619815 29.980645,6.9724949 q -0.08942,-0.1916156 -0.08942,-0.4109091 0,-0.2554875 0.114969,-0.4598775 0.117098,-0.20439 0.321488,-0.3087141 0.204391,-0.104324 0.504588,-0.104324 0.451362,0 0.70472,0.2448422 0.253358,0.2448422 0.268262,0.7004616 L 31.28789,6.661652 Q 31.25382,6.4104226 31.140984,6.3103566 31.028144,6.2102907 30.819496,6.2102907 q -0.208648,0 -0.321488,0.087292 -0.112841,0.087292 -0.112841,0.2171643 0,0.1277438 0.102195,0.2150354 0.102195,0.087292 0.470523,0.1916156 0.389618,0.1128403 0.562073,0.238455 0.174583,0.1234856 0.266132,0.3214884 0.09155,0.1958738 0.09155,0.4769101 0,0.4066509 -0.251229,0.683429 -0.249101,0.2767782 -0.781366,0.2767782 -0.941046,0 -1.047499,-1.0709191 z m 2.516552,1.0155628 V 5.7418967 h 1.899124 v 0.5280076 h -1.383891 v 0.6919453 h 1.285954 V 7.487728 h -1.285954 v 0.849496 h 1.43073 v 0.5258784 z m 2.38455,0 V 5.7418967 h 1.087951 q 0.417296,0 0.596137,0.085163 0.178842,0.083033 0.293811,0.2916816 0.114969,0.2065191 0.114969,0.4960716 0,0.3661987 -0.176712,0.5897503 -0.174583,0.2235516 -0.4982,0.2810363 0.166067,0.1192275 0.274649,0.2618747 0.108582,0.1405181 0.295939,0.5067168 l 0.310844,0.6089119 h -0.6153 L 36.008021,8.1839315 Q 35.805761,7.8156037 35.733372,7.724054 35.660984,7.6303752 35.58008,7.5963102 35.49918,7.5601162 35.320334,7.5601162 h -0.106453 v 1.3029862 z m 0.515233,-1.8011869 h 0.383231 q 0.351296,0 0.447104,-0.029807 0.09581,-0.031936 0.155421,-0.1256146 0.05961,-0.093679 0.05961,-0.2491004 0,-0.1490343 -0.05961,-0.238455 -0.05961,-0.09155 -0.161809,-0.1256147 -0.07239,-0.02342 -0.419425,-0.02342 h -0.404522 z m 2.654941,1.8011869 -0.913368,-3.1212057 h 0.559944 l 0.647235,2.3100329 0.625944,-2.3100329 h 0.549298 l -0.915497,3.1212057 z m 1.733057,0 V 5.7418967 h 1.899123 v 0.5280076 h -1.38389 v 0.6919453 h 1.285954 V 7.487728 h -1.285954 v 0.849496 h 1.43073 v 0.5258784 z m 2.38455,0 V 5.7418967 h 1.087951 q 0.417296,0 0.596137,0.085163 0.178841,0.083033 0.293811,0.2916816 0.114969,0.2065191 0.114969,0.4960716 0,0.3661987 -0.176712,0.5897503 -0.174583,0.2235516 -0.498201,0.2810363 0.166067,0.1192275 0.274649,0.2618747 0.108583,0.1405181 0.29594,0.5067168 l 0.310843,0.6089119 H 43.670517 L 43.295802,8.1839315 Q 43.093541,7.8156037 43.021153,7.724054 42.948763,7.630375 42.867861,7.5963102 q -0.0809,-0.036194 -0.259746,-0.036194 h -0.106453 v 1.3029862 z m 0.515233,-1.8011869 h 0.383231 q 0.351295,0 0.447103,-0.029807 0.09581,-0.031936 0.155422,-0.1256146 0.05961,-0.093679 0.05961,-0.2491004 0,-0.1490343 -0.05961,-0.238455 -0.05961,-0.09155 -0.161809,-0.1256147 -0.07239,-0.02342 -0.419425,-0.02342 h -0.404522 z"
         id="path9" />
    </g>
  </g>
</svg>
