<?xml version="1.0" encoding="UTF-8" standalone="no"?>
<!-- Created with Inkscape (http://www.inkscape.org/) -->

<svg
   width="42.176098mm"
   height="6.9742589mm"
   viewBox="0 0 42.176098 6.9742588"
   version="1.1"
   id="svg1"
   inkscape:export-filename="dchat.svg"
   inkscape:export-xdpi="96"
   inkscape:export-ydpi="96"
   inkscape:version="1.3.2 (091e20e, 2023-11-25, custom)"
   sodipodi:docname="dchat_iwr_logo_2.svg"
   xmlns:inkscape="http://www.inkscape.org/namespaces/inkscape"
   xmlns:sodipodi="http://sodipodi.sourceforge.net/DTD/sodipodi-0.dtd"
   xmlns:xlink="http://www.w3.org/1999/xlink"
   xmlns="http://www.w3.org/2000/svg"
   xmlns:svg="http://www.w3.org/2000/svg">
  <sodipodi:namedview
     id="namedview1"
     pagecolor="#000000"
     bordercolor="#000000"
     borderopacity="0.25"
     inkscape:showpageshadow="2"
     inkscape:pageopacity="0.0"
     inkscape:pagecheckerboard="0"
     inkscape:deskcolor="#d1d1d1"
     inkscape:document-units="mm"
     inkscape:zoom="22.919307"
     inkscape:cx="7.439143"
     inkscape:cy="18.521503"
     inkscape:window-width="2560"
     inkscape:window-height="1351"
     inkscape:window-x="-9"
     inkscape:window-y="-9"
     inkscape:window-maximized="1"
     inkscape:current-layer="layer1" />
  <defs
     id="defs1">
    <linearGradient
       id="linearGradient1"
       inkscape:collect="always">
      <stop
         style="stop-color:#6c3cff;stop-opacity:1;"
         offset="0"
         id="stop1" />
      <stop
         style="stop-color:#ffffac;stop-opacity:1;"
         offset="0.19942197"
         id="stop3" />
      <stop
         style="stop-color:#792aff;stop-opacity:1;"
         offset="1"
         id="stop2" />
    </linearGradient>
    <linearGradient
       inkscape:collect="always"
       xlink:href="#linearGradient1"
       id="linearGradient4"
       gradientUnits="userSpaceOnUse"
       gradientTransform="matrix(0.75,0,0,0.75,-25.939558,-35.968056)"
       x1="44.085709"
       y1="85.134216"
       x2="72.62764"
       y2="85.134216" />
  </defs>
  <g
     inkscape:label="Layer 1"
     inkscape:groupmode="layer"
     id="layer1"
     transform="translate(-7.1247224,-24.395473)">
    <path
       d="m 7.1247234,24.536033 h 1.3022467 q 1.2609068,0 1.7032579,0.115756 0.446484,0.115755 0.677995,0.380338 0.231511,0.264584 0.289388,0.59118 0.05788,0.322461 0.05788,1.273308 v 2.344045 q 0,0.901238 -0.08682,1.207163 -0.08268,0.301791 -0.293522,0.475424 -0.21084,0.169498 -0.520899,0.239779 -0.3100586,0.06614 -0.9343106,0.06614 h -2.195217 z m 1.7404635,1.145151 v 4.402837 q 0.3762052,0 0.4630215,-0.148829 0.086816,-0.152962 0.086816,-0.822689 v -2.600361 q 0,-0.454753 -0.028935,-0.58291 -0.028935,-0.128158 -0.1322917,-0.186036 -0.103353,-0.06201 -0.3886073,-0.06201 z m 7.0031981,1.773537 H 14.12792 v -1.165822 q 0,-0.508496 -0.05788,-0.63252 -0.05374,-0.128157 -0.243913,-0.128157 -0.214974,0 -0.272852,0.152962 -0.05788,0.152963 -0.05788,0.66146 v 3.108857 q 0,0.487825 0.05788,0.636654 0.05788,0.148828 0.260449,0.148828 0.194304,0 0.252182,-0.148828 0.06201,-0.148829 0.06201,-0.698666 v -0.839226 h 1.740465 v 0.260449 q 0,1.037664 -0.148829,1.471746 -0.144694,0.434083 -0.649057,0.760679 -0.500228,0.326595 -1.236101,0.326595 -0.764812,0 -1.260906,-0.276987 -0.496095,-0.276985 -0.657325,-0.764811 -0.161231,-0.491961 -0.161231,-1.47588 v -1.955439 q 0,-0.723471 0.04961,-1.083139 0.04961,-0.363803 0.293522,-0.698666 0.248047,-0.334863 0.68213,-0.525033 0.438216,-0.194304 1.00459,-0.194304 0.768946,0 1.269175,0.297657 0.500229,0.297657 0.657325,0.744141 0.157097,0.442351 0.157097,1.380796 z m 4.626078,-2.918688 v 6.693139 H 18.753999 V 28.417971 H 18.2331 v 2.811201 H 16.492637 V 24.536033 H 18.2331 v 2.393655 h 0.520899 v -2.393655 z m 3.704171,0 0.996322,6.693139 h -1.781805 l -0.08682,-1.203029 h -0.624252 l -0.103353,1.203029 H 20.79625 l 0.884702,-6.693139 z m -0.921908,4.303618 q -0.132292,-1.136882 -0.264584,-2.807066 -0.264583,1.91823 -0.33073,2.807066 z m 5.254464,-4.303618 v 1.339455 h -1.03353 v 5.353684 H 25.757196 V 25.875488 H 24.7278 v -1.339455 z"
       id="text1-8"
       style="font-size:11.2889px;font-family:Impact;-inkscape-font-specification:'Impact, Normal';fill:url(#linearGradient4);stroke-width:0.198437"
       aria-label="DCHAT"
       inkscape:export-filename="dchat_iwr_logo.svg"
       inkscape:export-xdpi="96"
       inkscape:export-ydpi="96" />
    <g
       id="text2-4"
       style="font-weight:bold;font-stretch:condensed;font-size:4.36032px;font-family:Arial;-inkscape-font-specification:'Arial, Bold Condensed';fill:#cccccc;stroke-width:0.653844"
       transform="matrix(0.73313876,0,0,0.76724902,7.053193,6.9706506)"
       aria-label="INTERACTIVE&#10;WEBASSEMBLY">
      <path
         d="m 29.99259,26.104578 v -3.121206 h 0.515233 v 3.121206 z m 1.015562,0 v -3.121206 h 0.502459 l 1.047499,2.084353 v -2.084353 h 0.481168 v 3.121206 h -0.519491 l -1.030466,-2.035384 v 2.035384 z m 3.151013,0 V 23.51138 H 33.39909 v -0.528008 h 2.033254 v 0.528008 h -0.757946 v 2.593198 z m 1.609571,0 v -3.121206 h 1.899124 v 0.528008 h -1.38389 v 0.691945 h 1.285953 v 0.525879 H 36.28397 V 25.5787 h 1.43073 v 0.525878 z m 2.38455,0 v -3.121206 h 1.087951 q 0.417297,0 0.596138,0.08516 0.178841,0.08303 0.293811,0.291681 0.114969,0.206519 0.114969,0.496072 0,0.366199 -0.176712,0.58975 -0.174583,0.223552 -0.498201,0.281037 0.166067,0.119227 0.274649,0.261874 0.108582,0.140518 0.29594,0.506717 l 0.310843,0.608912 H 39.837375 L 39.46266,25.425407 q -0.202261,-0.368328 -0.274649,-0.459877 -0.07239,-0.09368 -0.153293,-0.127744 -0.0809,-0.03619 -0.259745,-0.03619 H 38.66852 v 1.302986 z m 0.515234,-1.801187 h 0.383231 q 0.351295,0 0.447103,-0.02981 0.09581,-0.03194 0.155422,-0.125614 0.05961,-0.09368 0.05961,-0.249101 0,-0.149034 -0.05961,-0.238455 -0.05961,-0.09155 -0.161809,-0.125614 -0.07239,-0.02342 -0.419426,-0.02342 H 38.66852 Z m 4.370966,1.801187 H 42.477413 L 42.253861,25.3956 h -1.02195 l -0.210777,0.708978 h -0.549298 l 0.996401,-3.121206 h 0.547169 z m -0.951691,-1.234856 -0.351296,-1.15821 -0.347037,1.15821 z m 2.863588,0.08729 0.50033,0.193745 q -0.117099,0.523749 -0.389619,0.766463 -0.27252,0.240584 -0.670654,0.240584 -0.50033,0 -0.811173,-0.385361 -0.357683,-0.444974 -0.357683,-1.200791 0,-0.798398 0.359812,-1.24976 0.312972,-0.391747 0.84098,-0.391747 0.43007,0 0.719623,0.29381 0.206519,0.208649 0.302327,0.619558 l -0.510975,0.149034 q -0.04897,-0.253358 -0.195874,-0.387489 -0.144776,-0.13626 -0.342779,-0.13626 -0.283165,0 -0.462007,0.246971 -0.178841,0.246971 -0.178841,0.815431 0,0.58975 0.174583,0.83885 0.174583,0.249101 0.453491,0.249101 0.20439,0 0.353424,-0.157551 0.149034,-0.15968 0.215035,-0.504588 z m 1.518021,1.147565 V 23.51138 h -0.760075 v -0.528008 h 2.033255 v 0.528008 h -0.757946 v 2.593198 z m 1.592541,0 v -3.121206 h 0.515233 v 3.121206 z m 1.662796,0 -0.913368,-3.121206 h 0.559943 l 0.647235,2.310033 0.625945,-2.310033 h 0.549298 l -0.915497,3.121206 z m 1.733058,0 v -3.121206 h 1.899124 v 0.528008 h -1.38389 v 0.691945 h 1.285953 v 0.525879 H 51.973033 V 25.5787 h 1.43073 v 0.525878 z"
         id="path4" />
      <path
         d="m 30.369434,31.554978 -0.611041,-3.121206 h 0.530136 l 0.383232,2.143966 0.468393,-2.143966 h 0.615299 l 0.449233,2.18016 0.393876,-2.18016 h 0.519491 l -0.621686,3.121206 h -0.549298 l -0.510975,-2.333452 -0.506717,2.333452 z m 3.014752,0 v -3.121206 h 1.899124 v 0.528008 h -1.383891 v 0.691945 h 1.285954 v 0.525879 H 33.899419 V 31.0291 h 1.43073 v 0.525878 z m 2.382421,-3.121206 h 1.024079 q 0.419426,0 0.589751,0.07665 0.170325,0.07665 0.287423,0.270391 0.117099,0.193744 0.117099,0.438587 0,0.22568 -0.100066,0.40878 -0.100066,0.18097 -0.259746,0.268261 0.22781,0.08091 0.355553,0.276779 0.129873,0.195873 0.129873,0.47691 0,0.34065 -0.163938,0.576976 -0.163937,0.234196 -0.387489,0.289552 -0.155421,0.03832 -0.721752,0.03832 h -0.870787 z m 0.515233,0.519492 v 0.721752 h 0.34065 q 0.306585,0 0.378974,-0.01065 0.132001,-0.02129 0.206519,-0.110712 0.07452,-0.09155 0.07452,-0.246971 0,-0.138389 -0.06174,-0.223551 -0.05961,-0.08729 -0.146905,-0.108583 -0.08516,-0.02129 -0.493943,-0.02129 z m 0,1.241243 V 31.0291 h 0.47904 q 0.315101,0 0.404521,-0.03194 0.08942,-0.03407 0.149035,-0.129873 0.06174,-0.09794 0.06174,-0.246971 0,-0.153293 -0.066,-0.25123 -0.06387,-0.100066 -0.172454,-0.13626 -0.106454,-0.03832 -0.438587,-0.03832 z m 4.373095,1.360471 H 40.092863 L 39.869311,30.846 h -1.02195 l -0.210777,0.708978 h -0.549298 l 0.996401,-3.121206 h 0.547169 z m -0.951691,-1.234856 -0.351295,-1.15821 -0.347037,1.15821 z m 1.094338,0.219293 0.504588,-0.05961 q 0.08516,0.598266 0.557814,0.598266 0.234197,0 0.368328,-0.121356 0.134131,-0.123486 0.134131,-0.304456 0,-0.106454 -0.04684,-0.180971 -0.04684,-0.07452 -0.142647,-0.121356 -0.09581,-0.04897 -0.464136,-0.161809 -0.330005,-0.100066 -0.483297,-0.217164 -0.153293,-0.117099 -0.244842,-0.306585 -0.08942,-0.191616 -0.08942,-0.410909 0,-0.255488 0.114969,-0.459878 0.117099,-0.20439 0.321489,-0.308714 0.20439,-0.104324 0.504588,-0.104324 0.451361,0 0.704719,0.244842 0.253359,0.244842 0.268262,0.700462 l -0.517362,0.02768 q -0.03406,-0.251229 -0.146905,-0.351295 -0.112841,-0.100066 -0.321489,-0.100066 -0.208648,0 -0.321488,0.08729 -0.112841,0.08729 -0.112841,0.217164 0,0.127744 0.102195,0.215035 0.102195,0.08729 0.470523,0.191616 0.389619,0.11284 0.562073,0.238455 0.174583,0.123486 0.266133,0.321489 0.09155,0.195873 0.09155,0.47691 0,0.40665 -0.251229,0.683429 -0.2491,0.276778 -0.781366,0.276778 -0.941046,0 -1.047499,-1.070919 z m 2.38455,0 0.504588,-0.05961 q 0.08516,0.598266 0.557814,0.598266 0.234197,0 0.368328,-0.121356 0.134131,-0.123486 0.134131,-0.304456 0,-0.106454 -0.04684,-0.180971 -0.04684,-0.07452 -0.142647,-0.121356 -0.09581,-0.04897 -0.464136,-0.161809 -0.330005,-0.100066 -0.483297,-0.217164 -0.153293,-0.117099 -0.244842,-0.306585 -0.08942,-0.191616 -0.08942,-0.410909 0,-0.255488 0.114969,-0.459878 0.117099,-0.20439 0.321489,-0.308714 0.20439,-0.104324 0.504588,-0.104324 0.451361,0 0.704719,0.244842 0.253359,0.244842 0.268262,0.700462 l -0.517362,0.02768 q -0.03407,-0.251229 -0.146905,-0.351295 -0.112841,-0.100066 -0.321489,-0.100066 -0.208648,0 -0.321488,0.08729 -0.11284,0.08729 -0.11284,0.217164 0,0.127744 0.102195,0.215035 0.102195,0.08729 0.470522,0.191616 0.389619,0.11284 0.562073,0.238455 0.174583,0.123486 0.266133,0.321489 0.09155,0.195873 0.09155,0.47691 0,0.40665 -0.251229,0.683429 -0.2491,0.276778 -0.781366,0.276778 -0.941046,0 -1.047499,-1.070919 z m 2.516552,1.015563 v -3.121206 h 1.899124 v 0.528008 h -1.383891 v 0.691945 h 1.285954 v 0.525879 H 46.213917 V 31.0291 h 1.43073 v 0.525878 z m 2.376034,0 v -3.121206 h 0.77285 l 0.464135,2.129063 0.459878,-2.129063 h 0.774979 v 3.121206 H 50.067521 V 29.09804 l -0.508846,2.456938 H 49.060474 L 48.555886,29.09804 v 2.456938 z m 2.984945,-3.121206 h 1.024079 q 0.419425,0 0.58975,0.07665 0.170325,0.07665 0.287424,0.270391 0.117098,0.193744 0.117098,0.438587 0,0.22568 -0.100066,0.40878 -0.100066,0.18097 -0.259745,0.268261 0.227809,0.08091 0.355553,0.276779 0.129873,0.195873 0.129873,0.47691 0,0.34065 -0.163938,0.576976 -0.163938,0.234196 -0.387489,0.289552 -0.155422,0.03832 -0.721753,0.03832 h -0.870786 z m 0.515233,0.519492 v 0.721752 h 0.34065 q 0.306585,0 0.378973,-0.01065 0.132002,-0.02129 0.206519,-0.110712 0.07452,-0.09155 0.07452,-0.246971 0,-0.138389 -0.06174,-0.223551 -0.05961,-0.08729 -0.146906,-0.108583 -0.08516,-0.02129 -0.493942,-0.02129 z m 0,1.241243 V 31.0291 h 0.479039 q 0.315101,0 0.404522,-0.03194 0.08942,-0.03407 0.149034,-0.129873 0.06174,-0.09794 0.06174,-0.246971 0,-0.153293 -0.066,-0.25123 -0.06387,-0.100066 -0.172454,-0.13626 -0.106453,-0.03832 -0.438587,-0.03832 z m 2.080096,1.360471 v -3.095657 h 0.515233 V 31.0291 h 1.285953 v 0.525878 z m 2.514421,0 v -1.313631 l -0.936788,-1.807575 h 0.604654 l 0.602525,1.234857 0.591879,-1.234857 h 0.594008 l -0.941045,1.811833 v 1.309373 z"
         id="path5" />
    </g>
  </g>
</svg>
