<?xml version="1.0" encoding="UTF-8" standalone="no"?>
<!-- Created with Inkscape (http://www.inkscape.org/) -->

<svg
   width="56.234795mm"
   height="9.2990131mm"
   viewBox="0 0 56.234795 9.2990131"
   version="1.1"
   id="svg1"
   inkscape:export-filename="dchat.svg"
   inkscape:export-xdpi="96"
   inkscape:export-ydpi="96"
   inkscape:version="1.3.2 (091e20e, 2023-11-25, custom)"
   sodipodi:docname="dchat.svg"
   xmlns:inkscape="http://www.inkscape.org/namespaces/inkscape"
   xmlns:sodipodi="http://sodipodi.sourceforge.net/DTD/sodipodi-0.dtd"
   xmlns:xlink="http://www.w3.org/1999/xlink"
   xmlns="http://www.w3.org/2000/svg"
   xmlns:svg="http://www.w3.org/2000/svg">
  <sodipodi:namedview
     id="namedview1"
     pagecolor="#000000"
     bordercolor="#000000"
     borderopacity="0.25"
     inkscape:showpageshadow="2"
     inkscape:pageopacity="0.0"
     inkscape:pagecheckerboard="0"
     inkscape:deskcolor="#d1d1d1"
     inkscape:document-units="mm"
     inkscape:zoom="22.919307"
     inkscape:cx="7.439143"
     inkscape:cy="18.521503"
     inkscape:window-width="2560"
     inkscape:window-height="1351"
     inkscape:window-x="-9"
     inkscape:window-y="-9"
     inkscape:window-maximized="1"
     inkscape:current-layer="layer1" />
  <defs
     id="defs1">
    <linearGradient
       id="linearGradient1"
       inkscape:collect="always">
      <stop
         style="stop-color:#05ff00;stop-opacity:1;"
         offset="0"
         id="stop1" />
      <stop
         style="stop-color:#eeff2b;stop-opacity:1;"
         offset="0.19942197"
         id="stop3" />
      <stop
         style="stop-color:#0dff36;stop-opacity:1;"
         offset="1"
         id="stop2" />
    </linearGradient>
    <linearGradient
       inkscape:collect="always"
       xlink:href="#linearGradient1"
       id="linearGradient4"
       gradientUnits="userSpaceOnUse"
       gradientTransform="translate(-43.990335,-57.251609)"
       x1="44.085709"
       y1="85.134216"
       x2="72.62764"
       y2="85.134216" />
  </defs>
  <g
     inkscape:label="Layer 1"
     inkscape:groupmode="layer"
     id="layer1"
     transform="translate(-0.09537389,-23.233096)">
    <path
       d="M 0.09537389,23.42051 H 1.8317029 q 1.681209,0 2.27101,0.154341 0.595313,0.15434 0.903994,0.507118 0.308681,0.352778 0.385851,0.788239 0.07717,0.429948 0.07717,1.697745 v 3.125393 q 0,1.201651 -0.115756,1.609551 -0.110242,0.402387 -0.391363,0.633898 -0.28112,0.225998 -0.694531,0.319705 -0.413412,0.08819 -1.245748,0.08819 H 0.09537389 Z m 2.32061801,1.526868 v 5.870449 q 0.501607,0 0.617362,-0.198438 0.115755,-0.20395 0.115755,-1.096919 v -3.467148 q 0,-0.606337 -0.03858,-0.777214 -0.03858,-0.170877 -0.176389,-0.248047 -0.137804,-0.08268 -0.518143,-0.08268 z m 9.3375971,2.364716 H 9.4329698 v -1.554429 q 0,-0.677995 -0.07717,-0.84336 -0.071658,-0.170877 -0.3252174,-0.170877 -0.2866322,0 -0.3638024,0.20395 -0.07717,0.20395 -0.07717,0.881946 v 4.145143 q 0,0.650434 0.07717,0.848872 0.07717,0.198438 0.347266,0.198438 0.2590714,0 0.3362416,-0.198438 0.082682,-0.198438 0.082682,-0.931555 v -1.118968 h 2.3206194 v 0.347266 q 0,1.383552 -0.198438,1.962328 -0.192926,0.578777 -0.865409,1.014238 -0.666971,0.43546 -1.6481356,0.43546 -1.0197493,0 -1.6812083,-0.369315 -0.6614589,-0.369314 -0.876433,-1.019749 -0.2149742,-0.655947 -0.2149742,-1.96784 v -2.607251 q 0,-0.964628 0.066146,-1.444186 0.066146,-0.48507 0.3913631,-0.931555 0.3307295,-0.446484 0.9095062,-0.700044 0.5842888,-0.259071 1.3394545,-0.259071 1.0252613,0 1.6922323,0.396875 0.666972,0.396876 0.876434,0.992189 0.209462,0.589801 0.209462,1.841061 z m 6.168105,-3.891584 v 8.924185 h -2.320619 v -3.748268 h -0.694532 v 3.748268 H 12.585925 V 23.42051 h 2.320618 v 3.19154 h 0.694532 v -3.19154 z m 4.938894,0 1.32843,8.924185 h -2.37574 l -0.115755,-1.604038 h -0.832336 l -0.137804,1.604038 h -2.403301 l 1.179602,-8.924185 z m -1.229211,5.738157 q -0.176389,-1.515843 -0.352778,-3.742755 -0.352778,2.557641 -0.440973,3.742755 z m 7.005952,-5.738157 v 1.78594 H 27.25929 v 7.138245 H 24.938671 V 25.20645 h -1.372528 v -1.78594 z"
       id="text1-8"
       style="font-size:11.2889px;font-family:Impact;-inkscape-font-specification:'Impact, Normal';fill:url(#linearGradient4);stroke-width:0.264583"
       aria-label="DCHAT"
       inkscape:export-filename="dchat_iwr_logo.svg"
       inkscape:export-xdpi="96"
       inkscape:export-ydpi="96" />
    <g
       id="text2-4"
       style="font-weight:bold;font-stretch:condensed;font-size:4.36032px;font-family:Arial;-inkscape-font-specification:'Arial, Bold Condensed';fill:#cccccc;stroke-width:0.653844"
       transform="scale(0.97751834,1.0229987)"
       aria-label="INTERACTIVE&#10;WEBASSEMBLY">
      <path
         d="m 29.99259,26.104578 v -3.121206 h 0.515233 v 3.121206 z m 1.015562,0 v -3.121206 h 0.502459 l 1.047499,2.084353 v -2.084353 h 0.481168 v 3.121206 h -0.519491 l -1.030466,-2.035384 v 2.035384 z m 3.151013,0 V 23.51138 H 33.39909 v -0.528008 h 2.033254 v 0.528008 h -0.757946 v 2.593198 z m 1.609571,0 v -3.121206 h 1.899124 v 0.528008 h -1.38389 v 0.691945 h 1.285953 v 0.525879 H 36.28397 V 25.5787 h 1.43073 v 0.525878 z m 2.38455,0 v -3.121206 h 1.087951 q 0.417297,0 0.596138,0.08516 0.178841,0.08303 0.293811,0.291681 0.114969,0.206519 0.114969,0.496072 0,0.366199 -0.176712,0.58975 -0.174583,0.223552 -0.498201,0.281037 0.166067,0.119227 0.274649,0.261874 0.108582,0.140518 0.29594,0.506717 l 0.310843,0.608912 H 39.837375 L 39.46266,25.425407 q -0.202261,-0.368328 -0.274649,-0.459877 -0.07239,-0.09368 -0.153293,-0.127744 -0.0809,-0.03619 -0.259745,-0.03619 H 38.66852 v 1.302986 z m 0.515234,-1.801187 h 0.383231 q 0.351295,0 0.447103,-0.02981 0.09581,-0.03194 0.155422,-0.125614 0.05961,-0.09368 0.05961,-0.249101 0,-0.149034 -0.05961,-0.238455 -0.05961,-0.09155 -0.161809,-0.125614 -0.07239,-0.02342 -0.419426,-0.02342 H 38.66852 Z m 4.370966,1.801187 H 42.477413 L 42.253861,25.3956 h -1.02195 l -0.210777,0.708978 h -0.549298 l 0.996401,-3.121206 h 0.547169 z m -0.951691,-1.234856 -0.351296,-1.15821 -0.347037,1.15821 z m 2.863588,0.08729 0.50033,0.193745 q -0.117099,0.523749 -0.389619,0.766463 -0.27252,0.240584 -0.670654,0.240584 -0.50033,0 -0.811173,-0.385361 -0.357683,-0.444974 -0.357683,-1.200791 0,-0.798398 0.359812,-1.24976 0.312972,-0.391747 0.84098,-0.391747 0.43007,0 0.719623,0.29381 0.206519,0.208649 0.302327,0.619558 l -0.510975,0.149034 q -0.04897,-0.253358 -0.195874,-0.387489 -0.144776,-0.13626 -0.342779,-0.13626 -0.283165,0 -0.462007,0.246971 -0.178841,0.246971 -0.178841,0.815431 0,0.58975 0.174583,0.83885 0.174583,0.249101 0.453491,0.249101 0.20439,0 0.353424,-0.157551 0.149034,-0.15968 0.215035,-0.504588 z m 1.518021,1.147565 V 23.51138 h -0.760075 v -0.528008 h 2.033255 v 0.528008 h -0.757946 v 2.593198 z m 1.592541,0 v -3.121206 h 0.515233 v 3.121206 z m 1.662796,0 -0.913368,-3.121206 h 0.559943 l 0.647235,2.310033 0.625945,-2.310033 h 0.549298 l -0.915497,3.121206 z m 1.733058,0 v -3.121206 h 1.899124 v 0.528008 h -1.38389 v 0.691945 h 1.285953 v 0.525879 H 51.973033 V 25.5787 h 1.43073 v 0.525878 z"
         id="path4" />
      <path
         d="m 30.369434,31.554978 -0.611041,-3.121206 h 0.530136 l 0.383232,2.143966 0.468393,-2.143966 h 0.615299 l 0.449233,2.18016 0.393876,-2.18016 h 0.519491 l -0.621686,3.121206 h -0.549298 l -0.510975,-2.333452 -0.506717,2.333452 z m 3.014752,0 v -3.121206 h 1.899124 v 0.528008 h -1.383891 v 0.691945 h 1.285954 v 0.525879 H 33.899419 V 31.0291 h 1.43073 v 0.525878 z m 2.382421,-3.121206 h 1.024079 q 0.419426,0 0.589751,0.07665 0.170325,0.07665 0.287423,0.270391 0.117099,0.193744 0.117099,0.438587 0,0.22568 -0.100066,0.40878 -0.100066,0.18097 -0.259746,0.268261 0.22781,0.08091 0.355553,0.276779 0.129873,0.195873 0.129873,0.47691 0,0.34065 -0.163938,0.576976 -0.163937,0.234196 -0.387489,0.289552 -0.155421,0.03832 -0.721752,0.03832 h -0.870787 z m 0.515233,0.519492 v 0.721752 h 0.34065 q 0.306585,0 0.378974,-0.01065 0.132001,-0.02129 0.206519,-0.110712 0.07452,-0.09155 0.07452,-0.246971 0,-0.138389 -0.06174,-0.223551 -0.05961,-0.08729 -0.146905,-0.108583 -0.08516,-0.02129 -0.493943,-0.02129 z m 0,1.241243 V 31.0291 h 0.47904 q 0.315101,0 0.404521,-0.03194 0.08942,-0.03407 0.149035,-0.129873 0.06174,-0.09794 0.06174,-0.246971 0,-0.153293 -0.066,-0.25123 -0.06387,-0.100066 -0.172454,-0.13626 -0.106454,-0.03832 -0.438587,-0.03832 z m 4.373095,1.360471 H 40.092863 L 39.869311,30.846 h -1.02195 l -0.210777,0.708978 h -0.549298 l 0.996401,-3.121206 h 0.547169 z m -0.951691,-1.234856 -0.351295,-1.15821 -0.347037,1.15821 z m 1.094338,0.219293 0.504588,-0.05961 q 0.08516,0.598266 0.557814,0.598266 0.234197,0 0.368328,-0.121356 0.134131,-0.123486 0.134131,-0.304456 0,-0.106454 -0.04684,-0.180971 -0.04684,-0.07452 -0.142647,-0.121356 -0.09581,-0.04897 -0.464136,-0.161809 -0.330005,-0.100066 -0.483297,-0.217164 -0.153293,-0.117099 -0.244842,-0.306585 -0.08942,-0.191616 -0.08942,-0.410909 0,-0.255488 0.114969,-0.459878 0.117099,-0.20439 0.321489,-0.308714 0.20439,-0.104324 0.504588,-0.104324 0.451361,0 0.704719,0.244842 0.253359,0.244842 0.268262,0.700462 l -0.517362,0.02768 q -0.03406,-0.251229 -0.146905,-0.351295 -0.112841,-0.100066 -0.321489,-0.100066 -0.208648,0 -0.321488,0.08729 -0.112841,0.08729 -0.112841,0.217164 0,0.127744 0.102195,0.215035 0.102195,0.08729 0.470523,0.191616 0.389619,0.11284 0.562073,0.238455 0.174583,0.123486 0.266133,0.321489 0.09155,0.195873 0.09155,0.47691 0,0.40665 -0.251229,0.683429 -0.2491,0.276778 -0.781366,0.276778 -0.941046,0 -1.047499,-1.070919 z m 2.38455,0 0.504588,-0.05961 q 0.08516,0.598266 0.557814,0.598266 0.234197,0 0.368328,-0.121356 0.134131,-0.123486 0.134131,-0.304456 0,-0.106454 -0.04684,-0.180971 -0.04684,-0.07452 -0.142647,-0.121356 -0.09581,-0.04897 -0.464136,-0.161809 -0.330005,-0.100066 -0.483297,-0.217164 -0.153293,-0.117099 -0.244842,-0.306585 -0.08942,-0.191616 -0.08942,-0.410909 0,-0.255488 0.114969,-0.459878 0.117099,-0.20439 0.321489,-0.308714 0.20439,-0.104324 0.504588,-0.104324 0.451361,0 0.704719,0.244842 0.253359,0.244842 0.268262,0.700462 l -0.517362,0.02768 q -0.03407,-0.251229 -0.146905,-0.351295 -0.112841,-0.100066 -0.321489,-0.100066 -0.208648,0 -0.321488,0.08729 -0.11284,0.08729 -0.11284,0.217164 0,0.127744 0.102195,0.215035 0.102195,0.08729 0.470522,0.191616 0.389619,0.11284 0.562073,0.238455 0.174583,0.123486 0.266133,0.321489 0.09155,0.195873 0.09155,0.47691 0,0.40665 -0.251229,0.683429 -0.2491,0.276778 -0.781366,0.276778 -0.941046,0 -1.047499,-1.070919 z m 2.516552,1.015563 v -3.121206 h 1.899124 v 0.528008 h -1.383891 v 0.691945 h 1.285954 v 0.525879 H 46.213917 V 31.0291 h 1.43073 v 0.525878 z m 2.376034,0 v -3.121206 h 0.77285 l 0.464135,2.129063 0.459878,-2.129063 h 0.774979 v 3.121206 H 50.067521 V 29.09804 l -0.508846,2.456938 H 49.060474 L 48.555886,29.09804 v 2.456938 z m 2.984945,-3.121206 h 1.024079 q 0.419425,0 0.58975,0.07665 0.170325,0.07665 0.287424,0.270391 0.117098,0.193744 0.117098,0.438587 0,0.22568 -0.100066,0.40878 -0.100066,0.18097 -0.259745,0.268261 0.227809,0.08091 0.355553,0.276779 0.129873,0.195873 0.129873,0.47691 0,0.34065 -0.163938,0.576976 -0.163938,0.234196 -0.387489,0.289552 -0.155422,0.03832 -0.721753,0.03832 h -0.870786 z m 0.515233,0.519492 v 0.721752 h 0.34065 q 0.306585,0 0.378973,-0.01065 0.132002,-0.02129 0.206519,-0.110712 0.07452,-0.09155 0.07452,-0.246971 0,-0.138389 -0.06174,-0.223551 -0.05961,-0.08729 -0.146906,-0.108583 -0.08516,-0.02129 -0.493942,-0.02129 z m 0,1.241243 V 31.0291 h 0.479039 q 0.315101,0 0.404522,-0.03194 0.08942,-0.03407 0.149034,-0.129873 0.06174,-0.09794 0.06174,-0.246971 0,-0.153293 -0.066,-0.25123 -0.06387,-0.100066 -0.172454,-0.13626 -0.106453,-0.03832 -0.438587,-0.03832 z m 2.080096,1.360471 v -3.095657 h 0.515233 V 31.0291 h 1.285953 v 0.525878 z m 2.514421,0 v -1.313631 l -0.936788,-1.807575 h 0.604654 l 0.602525,1.234857 0.591879,-1.234857 h 0.594008 l -0.941045,1.811833 v 1.309373 z"
         id="path5" />
    </g>
  </g>
</svg>
