<?xml version="1.0" encoding="UTF-8" standalone="no"?>
<!-- Created with Inkscape (http://www.inkscape.org/) -->

<svg
   width="52.107784mm"
   height="9.2990122mm"
   viewBox="0 0 52.107784 9.2990122"
   version="1.1"
   id="svg1"
   inkscape:export-filename="dchat.svg"
   inkscape:export-xdpi="96"
   inkscape:export-ydpi="96"
   inkscape:version="1.3.2 (091e20e, 2023-11-25, custom)"
   sodipodi:docname="dchat.svg"
   xmlns:inkscape="http://www.inkscape.org/namespaces/inkscape"
   xmlns:sodipodi="http://sodipodi.sourceforge.net/DTD/sodipodi-0.dtd"
   xmlns:xlink="http://www.w3.org/1999/xlink"
   xmlns="http://www.w3.org/2000/svg"
   xmlns:svg="http://www.w3.org/2000/svg">
  <sodipodi:namedview
     id="namedview1"
     pagecolor="#000000"
     bordercolor="#000000"
     borderopacity="0.25"
     inkscape:showpageshadow="2"
     inkscape:pageopacity="0.0"
     inkscape:pagecheckerboard="0"
     inkscape:deskcolor="#d1d1d1"
     inkscape:document-units="mm"
     inkscape:zoom="22.919307"
     inkscape:cx="7.439143"
     inkscape:cy="18.521503"
     inkscape:window-width="2560"
     inkscape:window-height="1351"
     inkscape:window-x="-9"
     inkscape:window-y="-9"
     inkscape:window-maximized="1"
     inkscape:current-layer="layer1" />
  <defs
     id="defs1">
    <linearGradient
       id="linearGradient1"
       inkscape:collect="always">
      <stop
         style="stop-color:#05ff00;stop-opacity:1;"
         offset="0"
         id="stop1" />
      <stop
         style="stop-color:#eeff2b;stop-opacity:1;"
         offset="0.19942197"
         id="stop3" />
      <stop
         style="stop-color:#0dff36;stop-opacity:1;"
         offset="1"
         id="stop2" />
    </linearGradient>
    <linearGradient
       inkscape:collect="always"
       xlink:href="#linearGradient1"
       id="linearGradient3"
       gradientUnits="userSpaceOnUse"
       gradientTransform="translate(-44.078656,-68.815371)"
       x1="44.085709"
       y1="85.134216"
       x2="72.62764"
       y2="85.134216" />
  </defs>
  <g
     inkscape:label="Layer 1"
     inkscape:groupmode="layer"
     id="layer1"
     transform="translate(-0.00705263,-11.669335)">
    <path
       d="M 0.00705263,11.856748 H 1.7433825 q 1.6812083,0 2.2710093,0.154341 0.5953131,0.15434 0.903994,0.507118 0.3086808,0.352778 0.385851,0.788239 0.07717,0.429948 0.07717,1.697745 v 3.125393 q 0,1.201651 -0.1157554,1.609551 -0.1102428,0.402387 -0.3913629,0.633898 -0.2811201,0.225999 -0.694532,0.319705 -0.4134118,0.0882 -1.2457478,0.0882 H 0.00705263 Z m 2.32061867,1.526868 v 5.870449 q 0.5016064,0 0.6173618,-0.198438 0.1157553,-0.20395 0.1157553,-1.096919 V 14.49156 q 0,-0.606337 -0.038585,-0.777214 -0.038585,-0.170877 -0.1763892,-0.248048 -0.137804,-0.08268 -0.5181429,-0.08268 z m 9.3375967,2.364716 H 9.3446489 v -1.554429 q 0,-0.677995 -0.07717,-0.84336 -0.071658,-0.170877 -0.3252174,-0.170877 -0.2866322,0 -0.3638024,0.20395 -0.07717,0.20395 -0.07717,0.881945 v 4.145144 q 0,0.650434 0.07717,0.848872 0.07717,0.198438 0.347266,0.198438 0.2590714,0 0.3362416,-0.198438 0.082682,-0.198438 0.082682,-0.931555 v -1.118968 h 2.3206193 v 0.347266 q 0,1.383552 -0.198438,1.962328 -0.192926,0.578777 -0.865409,1.014238 -0.6669713,0.43546 -1.6481355,0.43546 -1.0197493,0 -1.6812083,-0.369314 Q 6.6106183,20.229717 6.3956442,19.579282 6.18067,18.923335 6.18067,17.611442 v -2.607251 q 0,-0.964628 0.066146,-1.444186 0.066146,-0.48507 0.3913631,-0.931555 0.3307295,-0.446484 0.9095062,-0.700044 0.5842888,-0.259071 1.3394545,-0.259071 1.0252614,0 1.6922322,0.396875 0.666972,0.396876 0.876434,0.992189 0.209462,0.589801 0.209462,1.841061 z m 6.168105,-3.891584 v 8.924185 h -2.320619 v -3.748268 h -0.694532 v 3.748268 h -2.320618 v -8.924185 h 2.320618 v 3.19154 h 0.694532 v -3.19154 z m 4.938894,0 1.32843,8.924185 h -2.37574 l -0.115755,-1.604038 h -0.832336 l -0.137804,1.604038 h -2.403301 l 1.179602,-8.924185 z m -1.229211,5.738157 Q 21.366667,16.079062 21.190278,13.85215 20.8375,16.409791 20.749305,17.594905 Z m 7.005952,-5.738157 v 1.78594 h -1.378039 v 7.138245 H 24.85035 v -7.138245 h -1.372528 v -1.78594 z"
       id="text1-5"
       style="font-size:11.2889px;font-family:Impact;-inkscape-font-specification:'Impact, Normal';fill:url(#linearGradient3);stroke-width:0.264583"
       aria-label="DCHAT"
       inkscape:export-filename="dchat_logo.svg"
       inkscape:export-xdpi="96"
       inkscape:export-ydpi="96" />
    <g
       id="text2-5"
       style="font-weight:bold;font-stretch:condensed;font-size:4.36032px;font-family:Arial;-inkscape-font-specification:'Arial, Bold Condensed';fill:#cccccc;stroke-width:0.653844"
       transform="scale(0.97751834,1.0229987)"
       aria-label="INTERACTIVE&#10;SERVER">
      <path
         d="m 29.902239,14.80079 v -3.121206 h 0.515233 v 3.121206 z m 1.015562,0 v -3.121206 h 0.502459 l 1.047499,2.084352 v -2.084352 h 0.481168 V 14.80079 H 32.429436 L 31.39897,12.765406 v 2.035384 z m 3.151013,0 v -2.593198 h -0.760075 v -0.528008 h 2.033254 v 0.528008 h -0.757946 v 2.593198 z m 1.609571,0 v -3.121206 h 1.899124 v 0.528008 h -1.383891 v 0.691945 h 1.285954 v 0.525878 h -1.285954 v 0.849496 h 1.43073 v 0.525879 z m 2.38455,0 v -3.121206 h 1.087951 q 0.417297,0 0.596138,0.08516 0.178841,0.08303 0.29381,0.291681 0.11497,0.206519 0.11497,0.496072 0,0.366199 -0.176712,0.58975 -0.174583,0.223552 -0.498201,0.281036 0.166067,0.119228 0.274649,0.261875 0.108582,0.140518 0.29594,0.506717 l 0.310843,0.608912 h -0.615299 l -0.374715,-0.679171 q -0.202261,-0.368328 -0.274649,-0.459878 -0.07239,-0.09368 -0.153293,-0.127743 -0.0809,-0.03619 -0.259745,-0.03619 h -0.106453 v 1.302986 z m 0.515234,-1.801187 H 38.9614 q 0.351295,0 0.447103,-0.02981 0.09581,-0.03194 0.155421,-0.125615 0.05961,-0.09368 0.05961,-0.2491 0,-0.149034 -0.05961,-0.238455 -0.05961,-0.09155 -0.161808,-0.125615 -0.07239,-0.02342 -0.419426,-0.02342 h -0.404521 z m 4.370965,1.801187 H 42.387062 L 42.16351,14.091812 h -1.02195 l -0.210777,0.708978 h -0.549298 l 0.996401,-3.121206 h 0.547169 z m -0.951691,-1.234856 -0.351295,-1.15821 -0.347037,1.15821 z m 2.863589,0.08729 0.50033,0.193745 q -0.117099,0.523749 -0.389619,0.766462 -0.27252,0.240584 -0.670654,0.240584 -0.50033,0 -0.811173,-0.38536 -0.357683,-0.444974 -0.357683,-1.200791 0,-0.798399 0.359812,-1.24976 0.312972,-0.391747 0.84098,-0.391747 0.43007,0 0.719623,0.29381 0.206519,0.208648 0.302327,0.619557 L 44.844,12.68876 q -0.04897,-0.253359 -0.195874,-0.38749 -0.144776,-0.13626 -0.342779,-0.13626 -0.283166,0 -0.462007,0.246972 -0.178841,0.246971 -0.178841,0.815431 0,0.58975 0.174583,0.83885 0.174583,0.249101 0.45349,0.249101 0.20439,0 0.353425,-0.157551 0.149034,-0.15968 0.215035,-0.504588 z m 1.518021,1.147565 v -2.593198 h -0.760075 v -0.528008 h 2.033255 v 0.528008 h -0.757947 v 2.593198 z m 1.592541,0 v -3.121206 h 0.515233 v 3.121206 z m 1.662795,0 -0.913367,-3.121206 h 0.559943 l 0.647235,2.310033 0.625945,-2.310033 h 0.549298 l -0.915497,3.121206 z m 1.733059,0 v -3.121206 h 1.899124 v 0.528008 h -1.383891 v 0.691945 h 1.285954 v 0.525878 h -1.285954 v 0.849496 h 1.430731 v 0.525879 z"
         id="path6" />
      <path
         d="m 29.787269,19.235627 0.504588,-0.05961 q 0.08516,0.598267 0.557814,0.598267 0.234197,0 0.368328,-0.121357 0.134131,-0.123485 0.134131,-0.304456 0,-0.106453 -0.04684,-0.18097 -0.04684,-0.07452 -0.142647,-0.121356 -0.09581,-0.04897 -0.464136,-0.161809 -0.330005,-0.100066 -0.483297,-0.217165 -0.153293,-0.117098 -0.244842,-0.306585 -0.08942,-0.191615 -0.08942,-0.410909 0,-0.255487 0.114969,-0.459877 0.117099,-0.20439 0.321489,-0.308714 0.20439,-0.104324 0.504588,-0.104324 0.451361,0 0.704719,0.244842 0.253359,0.244842 0.268262,0.700461 l -0.517362,0.02768 q -0.03406,-0.251229 -0.146905,-0.351295 -0.112841,-0.100066 -0.321489,-0.100066 -0.208648,0 -0.321488,0.08729 -0.112841,0.08729 -0.112841,0.217164 0,0.127744 0.102195,0.215035 0.102195,0.08729 0.470523,0.191616 0.389619,0.11284 0.562073,0.238455 0.174583,0.123486 0.266133,0.321488 0.09155,0.195874 0.09155,0.47691 0,0.406651 -0.251229,0.683429 -0.2491,0.276779 -0.781366,0.276779 -0.941046,0 -1.047499,-1.070919 z m 2.516552,1.015563 v -3.121206 h 1.899124 v 0.528008 h -1.383891 v 0.691945 h 1.285954 v 0.525879 h -1.285954 v 0.849495 h 1.43073 v 0.525879 z m 2.38455,0 v -3.121206 h 1.087951 q 0.417296,0 0.596138,0.08516 0.178841,0.08303 0.29381,0.291681 0.11497,0.206519 0.11497,0.496072 0,0.366199 -0.176713,0.58975 -0.174583,0.223552 -0.4982,0.281036 0.166067,0.119228 0.274649,0.261875 0.108582,0.140518 0.29594,0.506717 l 0.310843,0.608912 H 36.37246 l -0.374715,-0.679171 q -0.202261,-0.368328 -0.274649,-0.459878 -0.07239,-0.09368 -0.153293,-0.127743 -0.0809,-0.03619 -0.259746,-0.03619 h -0.106453 v 1.302986 z m 0.515233,-1.801187 h 0.383232 q 0.351295,0 0.447103,-0.02981 0.09581,-0.03194 0.155421,-0.125615 0.05961,-0.09368 0.05961,-0.2491 0,-0.149034 -0.05961,-0.238455 -0.05961,-0.09155 -0.161808,-0.125615 -0.07239,-0.02342 -0.419426,-0.02342 h -0.404522 z m 2.654941,1.801187 -0.913367,-3.121206 h 0.559943 l 0.647235,2.310033 0.625944,-2.310033 h 0.549299 l -0.915497,3.121206 z m 1.733057,0 v -3.121206 h 1.899124 v 0.528008 h -1.383891 v 0.691945 h 1.285954 v 0.525879 h -1.285954 v 0.849495 h 1.43073 v 0.525879 z m 2.38455,0 v -3.121206 h 1.087951 q 0.417296,0 0.596137,0.08516 0.178842,0.08303 0.293811,0.291681 0.114969,0.206519 0.114969,0.496072 0,0.366199 -0.176712,0.58975 -0.174583,0.223552 -0.4982,0.281036 0.166066,0.119228 0.274649,0.261875 0.108582,0.140518 0.295939,0.506717 l 0.310844,0.608912 h -0.6153 l -0.374715,-0.679171 q -0.202261,-0.368328 -0.274649,-0.459878 -0.07239,-0.09368 -0.153292,-0.127743 -0.08091,-0.03619 -0.259746,-0.03619 h -0.106453 v 1.302986 z m 0.515233,-1.801187 h 0.383231 q 0.351296,0 0.447103,-0.02981 0.09581,-0.03194 0.155422,-0.125615 0.05961,-0.09368 0.05961,-0.2491 0,-0.149034 -0.05961,-0.238455 -0.05961,-0.09155 -0.161809,-0.125615 -0.07239,-0.02342 -0.419425,-0.02342 h -0.404522 z"
         id="path7" />
    </g>
  </g>
</svg>
