<?xml version="1.0" encoding="UTF-8" standalone="no"?>
<!-- Created with Inkscape (http://www.inkscape.org/) -->

<svg
   width="39.080841mm"
   height="6.9742584mm"
   viewBox="0 0 39.080841 6.9742584"
   version="1.1"
   id="svg1"
   inkscape:export-filename="dchat.svg"
   inkscape:export-xdpi="96"
   inkscape:export-ydpi="96"
   inkscape:version="1.3.2 (091e20e, 2023-11-25, custom)"
   sodipodi:docname="dchat_isr_logo.svg"
   xmlns:inkscape="http://www.inkscape.org/namespaces/inkscape"
   xmlns:sodipodi="http://sodipodi.sourceforge.net/DTD/sodipodi-0.dtd"
   xmlns:xlink="http://www.w3.org/1999/xlink"
   xmlns="http://www.w3.org/2000/svg"
   xmlns:svg="http://www.w3.org/2000/svg">
  <sodipodi:namedview
     id="namedview1"
     pagecolor="#000000"
     bordercolor="#000000"
     borderopacity="0.25"
     inkscape:showpageshadow="2"
     inkscape:pageopacity="0.0"
     inkscape:pagecheckerboard="0"
     inkscape:deskcolor="#d1d1d1"
     inkscape:document-units="mm"
     inkscape:zoom="22.919307"
     inkscape:cx="7.439143"
     inkscape:cy="18.521503"
     inkscape:window-width="2560"
     inkscape:window-height="1351"
     inkscape:window-x="-9"
     inkscape:window-y="-9"
     inkscape:window-maximized="1"
     inkscape:current-layer="layer1" />
  <defs
     id="defs1">
    <linearGradient
       id="linearGradient1"
       inkscape:collect="always">
      <stop
         style="stop-color:#05ff00;stop-opacity:1;"
         offset="0"
         id="stop1" />
      <stop
         style="stop-color:#eeff2b;stop-opacity:1;"
         offset="0.19942197"
         id="stop3" />
      <stop
         style="stop-color:#0dff36;stop-opacity:1;"
         offset="1"
         id="stop2" />
    </linearGradient>
    <linearGradient
       inkscape:collect="always"
       xlink:href="#linearGradient1"
       id="linearGradient3"
       gradientUnits="userSpaceOnUse"
       gradientTransform="matrix(0.75,0,0,0.75,-26.543756,-47.531818)"
       x1="44.085709"
       y1="85.134216"
       x2="72.62764"
       y2="85.134216" />
  </defs>
  <g
     inkscape:label="Layer 1"
     inkscape:groupmode="layer"
     id="layer1"
     transform="translate(-6.5205258,-12.831711)">
    <path
       d="m 6.5205258,12.972271 h 1.3022474 q 1.2609062,0 1.703257,0.115756 0.4464848,0.115755 0.6779958,0.380338 0.23151,0.264584 0.289388,0.59118 0.05788,0.322461 0.05788,1.273308 v 2.344045 q 0,0.901238 -0.08682,1.207163 -0.08268,0.301791 -0.293522,0.475424 -0.2108404,0.169499 -0.5208993,0.239779 -0.3100588,0.06615 -0.9343108,0.06615 H 6.5205258 Z m 1.740464,1.145151 v 4.402837 q 0.3762048,0 0.4630214,-0.148829 0.086816,-0.152962 0.086816,-0.822689 V 14.94838 q 0,-0.454753 -0.028939,-0.58291 -0.028939,-0.128158 -0.1322919,-0.186036 -0.103353,-0.06201 -0.3886072,-0.06201 z m 7.0031972,1.773537 h -1.740464 v -1.165822 q 0,-0.508496 -0.05788,-0.63252 -0.05374,-0.128157 -0.243914,-0.128157 -0.214974,0 -0.272851,0.152962 -0.05788,0.152963 -0.05788,0.661459 v 3.108858 q 0,0.487825 0.05788,0.636654 0.05788,0.148828 0.260449,0.148828 0.194304,0 0.252181,-0.148828 0.06201,-0.148829 0.06201,-0.698666 v -0.839226 h 1.740464 v 0.260449 q 0,1.037664 -0.148828,1.471746 -0.144695,0.434083 -0.649057,0.760679 -0.500228,0.326595 -1.236102,0.326595 -0.764812,0 -1.260906,-0.276986 -0.496094,-0.276986 -0.657325,-0.764812 -0.16123,-0.491961 -0.16123,-1.47588 v -1.955439 q 0,-0.723471 0.04961,-1.083139 0.04961,-0.363803 0.293523,-0.698666 0.248047,-0.334863 0.682129,-0.525033 0.438217,-0.194304 1.004591,-0.194304 0.768946,0 1.269174,0.297657 0.500229,0.297657 0.657326,0.744141 0.157096,0.442351 0.157096,1.380796 z m 4.626079,-2.918688 v 6.693139 h -1.740464 v -2.811201 h -0.520899 v 2.811201 h -1.740464 v -6.693139 h 1.740464 v 2.393655 h 0.520899 v -2.393655 z m 3.704171,0 0.996322,6.693139 h -1.781805 l -0.08682,-1.203029 h -0.624252 l -0.103353,1.203029 h -1.802476 l 0.884702,-6.693139 z m -0.921909,4.303618 q -0.132291,-1.136882 -0.264583,-2.807066 -0.264584,1.91823 -0.33073,2.807066 z m 5.254464,-4.303618 v 1.339455 h -1.033529 v 5.353684 h -1.740464 v -5.353684 h -1.029396 v -1.339455 z"
       id="text1-5"
       style="font-size:11.2889px;font-family:Impact;-inkscape-font-specification:'Impact, Normal';fill:url(#linearGradient3);stroke-width:0.198437"
       aria-label="DCHAT"
       inkscape:export-filename="dchat_logo.svg"
       inkscape:export-xdpi="96"
       inkscape:export-ydpi="96" />
    <g
       id="text2-5"
       style="font-weight:bold;font-stretch:condensed;font-size:4.36032px;font-family:Arial;-inkscape-font-specification:'Arial, Bold Condensed';fill:#cccccc;stroke-width:0.653844"
       transform="matrix(0.73313876,0,0,0.76724902,6.5152363,4.0797101)"
       aria-label="INTERACTIVE&#10;SERVER">
      <path
         d="m 29.902239,14.80079 v -3.121206 h 0.515233 v 3.121206 z m 1.015562,0 v -3.121206 h 0.502459 l 1.047499,2.084352 v -2.084352 h 0.481168 V 14.80079 H 32.429436 L 31.39897,12.765406 v 2.035384 z m 3.151013,0 v -2.593198 h -0.760075 v -0.528008 h 2.033254 v 0.528008 h -0.757946 v 2.593198 z m 1.609571,0 v -3.121206 h 1.899124 v 0.528008 h -1.383891 v 0.691945 h 1.285954 v 0.525878 h -1.285954 v 0.849496 h 1.43073 v 0.525879 z m 2.38455,0 v -3.121206 h 1.087951 q 0.417297,0 0.596138,0.08516 0.178841,0.08303 0.29381,0.291681 0.11497,0.206519 0.11497,0.496072 0,0.366199 -0.176712,0.58975 -0.174583,0.223552 -0.498201,0.281036 0.166067,0.119228 0.274649,0.261875 0.108582,0.140518 0.29594,0.506717 l 0.310843,0.608912 h -0.615299 l -0.374715,-0.679171 q -0.202261,-0.368328 -0.274649,-0.459878 -0.07239,-0.09368 -0.153293,-0.127743 -0.0809,-0.03619 -0.259745,-0.03619 h -0.106453 v 1.302986 z m 0.515234,-1.801187 H 38.9614 q 0.351295,0 0.447103,-0.02981 0.09581,-0.03194 0.155421,-0.125615 0.05961,-0.09368 0.05961,-0.2491 0,-0.149034 -0.05961,-0.238455 -0.05961,-0.09155 -0.161808,-0.125615 -0.07239,-0.02342 -0.419426,-0.02342 h -0.404521 z m 4.370965,1.801187 H 42.387062 L 42.16351,14.091812 h -1.02195 l -0.210777,0.708978 h -0.549298 l 0.996401,-3.121206 h 0.547169 z m -0.951691,-1.234856 -0.351295,-1.15821 -0.347037,1.15821 z m 2.863589,0.08729 0.50033,0.193745 q -0.117099,0.523749 -0.389619,0.766462 -0.27252,0.240584 -0.670654,0.240584 -0.50033,0 -0.811173,-0.38536 -0.357683,-0.444974 -0.357683,-1.200791 0,-0.798399 0.359812,-1.24976 0.312972,-0.391747 0.84098,-0.391747 0.43007,0 0.719623,0.29381 0.206519,0.208648 0.302327,0.619557 L 44.844,12.68876 q -0.04897,-0.253359 -0.195874,-0.38749 -0.144776,-0.13626 -0.342779,-0.13626 -0.283166,0 -0.462007,0.246972 -0.178841,0.246971 -0.178841,0.815431 0,0.58975 0.174583,0.83885 0.174583,0.249101 0.45349,0.249101 0.20439,0 0.353425,-0.157551 0.149034,-0.15968 0.215035,-0.504588 z m 1.518021,1.147565 v -2.593198 h -0.760075 v -0.528008 h 2.033255 v 0.528008 h -0.757947 v 2.593198 z m 1.592541,0 v -3.121206 h 0.515233 v 3.121206 z m 1.662795,0 -0.913367,-3.121206 h 0.559943 l 0.647235,2.310033 0.625945,-2.310033 h 0.549298 l -0.915497,3.121206 z m 1.733059,0 v -3.121206 h 1.899124 v 0.528008 h -1.383891 v 0.691945 h 1.285954 v 0.525878 h -1.285954 v 0.849496 h 1.430731 v 0.525879 z"
         id="path6" />
      <path
         d="m 29.787269,19.235627 0.504588,-0.05961 q 0.08516,0.598267 0.557814,0.598267 0.234197,0 0.368328,-0.121357 0.134131,-0.123485 0.134131,-0.304456 0,-0.106453 -0.04684,-0.18097 -0.04684,-0.07452 -0.142647,-0.121356 -0.09581,-0.04897 -0.464136,-0.161809 -0.330005,-0.100066 -0.483297,-0.217165 -0.153293,-0.117098 -0.244842,-0.306585 -0.08942,-0.191615 -0.08942,-0.410909 0,-0.255487 0.114969,-0.459877 0.117099,-0.20439 0.321489,-0.308714 0.20439,-0.104324 0.504588,-0.104324 0.451361,0 0.704719,0.244842 0.253359,0.244842 0.268262,0.700461 l -0.517362,0.02768 q -0.03406,-0.251229 -0.146905,-0.351295 -0.112841,-0.100066 -0.321489,-0.100066 -0.208648,0 -0.321488,0.08729 -0.112841,0.08729 -0.112841,0.217164 0,0.127744 0.102195,0.215035 0.102195,0.08729 0.470523,0.191616 0.389619,0.11284 0.562073,0.238455 0.174583,0.123486 0.266133,0.321488 0.09155,0.195874 0.09155,0.47691 0,0.406651 -0.251229,0.683429 -0.2491,0.276779 -0.781366,0.276779 -0.941046,0 -1.047499,-1.070919 z m 2.516552,1.015563 v -3.121206 h 1.899124 v 0.528008 h -1.383891 v 0.691945 h 1.285954 v 0.525879 h -1.285954 v 0.849495 h 1.43073 v 0.525879 z m 2.38455,0 v -3.121206 h 1.087951 q 0.417296,0 0.596138,0.08516 0.178841,0.08303 0.29381,0.291681 0.11497,0.206519 0.11497,0.496072 0,0.366199 -0.176713,0.58975 -0.174583,0.223552 -0.4982,0.281036 0.166067,0.119228 0.274649,0.261875 0.108582,0.140518 0.29594,0.506717 l 0.310843,0.608912 H 36.37246 l -0.374715,-0.679171 q -0.202261,-0.368328 -0.274649,-0.459878 -0.07239,-0.09368 -0.153293,-0.127743 -0.0809,-0.03619 -0.259746,-0.03619 h -0.106453 v 1.302986 z m 0.515233,-1.801187 h 0.383232 q 0.351295,0 0.447103,-0.02981 0.09581,-0.03194 0.155421,-0.125615 0.05961,-0.09368 0.05961,-0.2491 0,-0.149034 -0.05961,-0.238455 -0.05961,-0.09155 -0.161808,-0.125615 -0.07239,-0.02342 -0.419426,-0.02342 h -0.404522 z m 2.654941,1.801187 -0.913367,-3.121206 h 0.559943 l 0.647235,2.310033 0.625944,-2.310033 h 0.549299 l -0.915497,3.121206 z m 1.733057,0 v -3.121206 h 1.899124 v 0.528008 h -1.383891 v 0.691945 h 1.285954 v 0.525879 h -1.285954 v 0.849495 h 1.43073 v 0.525879 z m 2.38455,0 v -3.121206 h 1.087951 q 0.417296,0 0.596137,0.08516 0.178842,0.08303 0.293811,0.291681 0.114969,0.206519 0.114969,0.496072 0,0.366199 -0.176712,0.58975 -0.174583,0.223552 -0.4982,0.281036 0.166066,0.119228 0.274649,0.261875 0.108582,0.140518 0.295939,0.506717 l 0.310844,0.608912 h -0.6153 l -0.374715,-0.679171 q -0.202261,-0.368328 -0.274649,-0.459878 -0.07239,-0.09368 -0.153292,-0.127743 -0.08091,-0.03619 -0.259746,-0.03619 h -0.106453 v 1.302986 z m 0.515233,-1.801187 h 0.383231 q 0.351296,0 0.447103,-0.02981 0.09581,-0.03194 0.155422,-0.125615 0.05961,-0.09368 0.05961,-0.2491 0,-0.149034 -0.05961,-0.238455 -0.05961,-0.09155 -0.161809,-0.125615 -0.07239,-0.02342 -0.419425,-0.02342 h -0.404522 z"
         id="path7" />
    </g>
  </g>
</svg>
